<?xml version="1.0" standalone="no"?>
<!DOCTYPE svg PUBLIC "-//W3C//DTD SVG 20010904//EN"
 "http://www.w3.org/TR/2001/REC-SVG-20010904/DTD/svg10.dtd">
<svg version="1.0" xmlns="http://www.w3.org/2000/svg"
 width="700.000000pt" height="700.000000pt" viewBox="0 0 700.000000 700.000000"
 preserveAspectRatio="xMidYMid meet">
<metadata>
Created by potrace 1.11, written by Peter Selinger 2001-2013
</metadata>
<g transform="translate(0.000000,700.000000) scale(0.100000,-0.100000)"
fill="#000000" stroke="none">
<path d="M1450 5768 c-29 -15 -51 -35 -63 -58 -16 -33 -17 -155 -15 -2227 l3
-2192 21 -28 c30 -40 61 -52 192 -76 164 -29 622 -31 787 -4 358 60 628 173
861 362 71 57 202 196 245 259 13 20 26 36 29 36 3 0 33 -31 66 -68 301 -342
723 -543 1244 -593 147 -14 453 -6 609 15 109 15 136 28 175 80 21 27 21 39
27 889 3 474 8 1461 10 2194 l4 1332 -21 27 c-60 81 -139 89 -309 34 -251 -81
-461 -231 -613 -435 -53 -71 -145 -241 -177 -327 l-18 -48 -1002 0 -1003 0
-52 98 c-165 307 -390 545 -624 657 -99 47 -133 58 -246 80 -92 18 -77 19
-130 -7z m3888 -2303 c-5 -1089 -12 -1982 -14 -1985 -3 -2 -118 -5 -257 -5
-264 0 -359 10 -537 57 -251 65 -488 198 -661 368 -91 90 -174 194 -166 207 3
4 229 278 502 608 273 330 505 618 516 640 25 54 24 124 -2 180 -38 82 71 75
-1215 75 l-1152 0 -30 -29 c-60 -60 -67 -181 -15 -250 15 -20 248 -303 516
-629 l489 -594 -18 -34 c-57 -105 -204 -264 -324 -349 -268 -189 -632 -278
-1065 -261 -93 4 -185 9 -202 12 l-33 6 0 1980 0 1980 67 -37 c195 -107 378
-328 495 -598 46 -107 64 -130 117 -146 28 -8 346 -11 1167 -11 1070 0 1131 1
1169 19 53 24 59 32 91 131 79 247 218 442 397 557 56 37 169 95 173 89 1 0
-3 -892 -8 -1981z m-1010 -182 c-8 -10 -194 -235 -413 -500 -219 -266 -403
-483 -410 -483 -9 0 -653 769 -818 977 l-18 23 837 0 c796 0 836 -1 822 -17z"/>
</g>
</svg>
